<?xml version="1.0" standalone="no"?>
<!DOCTYPE svg PUBLIC "-//W3C//DTD SVG 20010904//EN"
 "http://www.w3.org/TR/2001/REC-SVG-20010904/DTD/svg10.dtd">
<svg version="1.0" xmlns="http://www.w3.org/2000/svg"
 width="275.000000pt" height="183.000000pt" viewBox="0 0 275.000000 183.000000"
 preserveAspectRatio="xMidYMid meet">

<g transform="translate(0.000000,183.000000) scale(0.100000,-0.100000)"
fill="#000000" stroke="none">
<path d="M0 1751 c0 -72 3 -85 41 -160 48 -94 42 -94 141 2 55 53 74 65 110
70 24 3 71 18 105 32 35 14 74 25 89 25 37 0 90 -60 138 -154 46 -92 56 -165
32 -246 -20 -66 -20 -70 0 -42 17 25 52 29 60 7 4 -8 9 -13 13 -11 3 2 6 -16
6 -40 0 -42 0 -43 30 -41 16 2 38 8 49 14 18 10 18 11 0 39 -14 21 -19 48 -20
113 -1 48 -5 101 -9 119 -7 29 -5 32 17 32 34 0 83 -97 79 -158 -3 -41 -2 -43
17 -33 18 9 23 6 41 -23 12 -19 22 -52 24 -75 1 -30 6 -41 18 -41 23 0 42 25
42 55 0 23 3 25 48 25 83 0 79 21 81 -423 1 -216 4 -356 7 -312 6 77 7 79 20
53 12 -24 20 -28 58 -28 l43 0 0 -40 c0 -22 5 -40 10 -40 6 0 10 -9 10 -21 0
-29 18 -59 36 -59 11 0 14 -6 10 -16 -3 -9 -6 -27 -6 -41 0 -19 -4 -24 -22
-21 -17 2 -25 13 -31 41 -8 33 -12 37 -39 37 l-31 0 6 -62 c3 -35 8 -71 12
-81 5 -13 2 -17 -13 -17 -11 0 -22 3 -25 8 -2 4 -2 1 0 -6 1 -8 3 -40 3 -73
l0 -59 39 0 39 0 5 47 c10 84 26 153 36 153 9 0 41 -99 41 -128 0 -12 4 -22 9
-22 9 0 21 -69 22 -123 l0 -27 679 0 680 0 0 915 0 915 -980 0 c-791 0 -980
-2 -980 -13 0 -20 -54 -47 -94 -47 -43 0 -95 20 -115 43 -18 23 -63 21 -111
-3 -49 -25 -72 -25 -138 0 -43 17 -76 20 -192 20 l-140 0 0 -79z m2210 -286
c0 -70 -4 -115 -10 -115 -6 0 -10 45 -10 115 0 70 4 115 10 115 6 0 10 -45 10
-115z m-926 80 c3 -8 1 -15 -4 -15 -6 0 -10 7 -10 15 0 8 2 15 4 15 2 0 6 -7
10 -15z m46 1 c0 -17 -32 -15 -38 2 -2 7 6 12 17 12 12 0 21 -6 21 -14z m-60
-41 c0 -8 -2 -15 -4 -15 -2 0 -6 7 -10 15 -3 8 -1 15 4 15 6 0 10 -7 10 -15z
m17 -7 c-3 -8 -6 -5 -6 6 -1 11 2 17 5 13 3 -3 4 -12 1 -19z m43 5 c0 -7 -7
-13 -15 -13 -8 0 -15 6 -15 13 0 8 7 14 15 14 8 0 15 -6 15 -14z m30 8 c0 -6
-4 -13 -10 -16 -5 -3 -10 1 -10 9 0 9 5 16 10 16 6 0 10 -4 10 -9z m-155 -91
c-10 -17 6 -34 17 -19 8 12 9 12 6 0 -5 -18 -58 -27 -58 -10 0 7 8 18 18 25
21 16 25 17 17 4z m-13 -51 c18 -1 19 -2 5 -6 -22 -6 -47 14 -46 36 0 11 3 9
9 -6 6 -14 19 -23 32 -24z m-392 -122 c0 -16 -18 3 -23 25 -6 22 -5 22 8 4 8
-11 15 -24 15 -29z m760 -73 c0 -3 -6 -2 -12 2 -7 4 -5 -2 5 -13 18 -20 18
-21 -3 -36 -30 -21 -54 -15 -58 15 -4 35 23 61 49 48 10 -6 19 -13 19 -16z
m220 -10 c14 -35 14 -34 -27 -34 -29 0 -34 3 -25 12 7 7 12 20 12 30 0 27 29
22 40 -8z m-570 -4 c9 -6 10 -10 3 -10 -6 0 -18 -3 -27 -6 -11 -4 -16 -1 -16
10 0 18 17 21 40 6z m257 -22 c-3 -8 -6 -5 -6 6 -1 11 2 17 5 13 3 -3 4 -12 1
-19z m298 -58 c3 -5 1 -10 -4 -10 -6 0 -11 5 -11 10 0 6 2 10 4 10 3 0 8 -4
11 -10z m-384 -58 c-7 -2 -18 1 -23 6 -8 8 -4 9 13 5 13 -4 18 -8 10 -11z
m227 -38 c22 -22 23 -41 5 -59 -21 -22 -54 -19 -60 5 -3 11 -10 20 -15 20 -5
0 -6 5 -3 10 3 6 0 10 -7 11 -11 0 5 7 60 28 2 0 11 -6 20 -15z m-73 -83 c-3
-5 2 -16 10 -24 8 -9 15 -32 15 -51 0 -29 -4 -36 -20 -36 -17 0 -20 7 -20 53
0 48 5 67 17 67 2 0 2 -4 -2 -9z m-295 -172 c0 -12 -7 -19 -20 -19 -23 0 -24
4 -9 31 12 23 29 16 29 -12z"/>
<path d="M405 1450 c-3 -5 -13 -6 -22 -3 -14 6 -13 1 4 -23 11 -16 30 -38 42
-48 25 -23 27 -52 5 -64 -11 -6 -13 -11 -5 -16 6 -4 11 -2 11 3 0 6 5 11 10
11 6 0 10 -9 10 -20 0 -12 -5 -17 -13 -14 -8 3 -14 -2 -14 -11 0 -12 6 -15 24
-10 17 4 23 2 21 -7 -1 -7 3 -23 10 -35 21 -38 25 -115 7 -156 -11 -28 -12
-36 -3 -35 10 2 12 -13 10 -57 -2 -33 -5 -62 -8 -64 -9 -10 -34 24 -55 77 -12
31 -35 76 -51 100 -16 23 -34 55 -39 71 -6 16 -17 32 -25 35 -19 7 -18 3 11
-40 19 -28 24 -45 20 -66 -4 -15 -3 -28 2 -28 5 0 10 -12 11 -27 1 -16 4 -41
6 -57 3 -21 -3 -36 -21 -52 -15 -14 -23 -30 -20 -38 6 -14 -9 -126 -21 -156
-3 -8 -16 -55 -28 -105 -25 -102 -32 -96 -9 10 8 39 15 82 15 97 0 25 -3 27
-29 24 -23 -2 -31 1 -35 18 -6 20 -7 20 -20 4 -17 -22 -26 -23 -26 -2 0 9 18
34 40 56 34 35 45 40 75 36 19 -2 35 -3 35 -2 0 11 -34 61 -66 97 -45 52 -92
78 -122 70 -26 -6 -29 -40 -6 -57 14 -11 14 -16 -1 -53 -13 -32 -27 -47 -59
-63 -23 -11 -50 -20 -59 -20 -16 0 -17 -33 -17 -415 l0 -415 90 0 c79 0 90 2
91 18 0 14 2 14 9 -3 8 -20 9 -20 9 1 1 11 4 24 8 28 4 4 8 24 10 44 5 92 15
162 24 162 5 0 9 11 9 24 0 32 20 44 33 20 9 -16 13 -12 23 31 10 45 12 30 13
-137 l1 -188 40 0 c38 0 40 2 40 29 0 46 10 64 26 50 11 -9 14 -7 14 10 0 11
4 21 9 21 5 0 11 9 14 20 3 11 12 20 20 20 21 0 51 78 37 95 -7 8 -11 98 -11
254 0 236 0 241 -19 231 -17 -9 -19 -8 -13 7 3 10 12 25 19 33 7 8 13 17 13
20 0 3 2 12 5 20 3 8 6 107 8 218 l3 204 28 22 28 22 -18 40 c-28 63 -101 144
-128 144 -13 0 -26 -4 -30 -10z m-88 -792 c-3 -8 -6 -5 -6 6 -1 11 2 17 5 13
3 -3 4 -12 1 -19z m-60 -160 c-3 -8 -6 -5 -6 6 -1 11 2 17 5 13 3 -3 4 -12 1
-19z m60 -100 c-3 -7 -5 -2 -5 12 0 14 2 19 5 13 2 -7 2 -19 0 -25z m-80 -20
c-3 -7 -5 -2 -5 12 0 14 2 19 5 13 2 -7 2 -19 0 -25z m-10 -70 c-3 -7 -5 -2
-5 12 0 14 2 19 5 13 2 -7 2 -19 0 -25z"/>
<path d="M748 1143 c61 -2 163 -2 225 0 61 1 11 3 -113 3 -124 0 -174 -2 -112
-3z"/>
<path d="M1097 1133 c10 -7 13 -88 16 -324 l2 -314 0 319 c0 275 -2 320 -15
323 -11 3 -12 2 -3 -4z"/>
<path d="M554 830 c0 -157 2 -221 3 -142 2 78 2 206 0 285 -1 78 -3 14 -3
-143z"/>
<path d="M817 1075 c-7 -6 -18 -10 -24 -8 -23 8 -27 -99 -5 -150 20 -46 15
-64 -19 -76 -18 -6 -44 -11 -60 -11 -52 0 -65 -33 -93 -242 l-13 -98 37 0 36
0 3 48 c1 26 7 52 12 57 8 7 10 -8 7 -48 l-3 -57 143 0 142 0 2 58 c1 36 3 44
5 22 7 -75 11 -80 49 -80 35 0 36 1 31 33 -3 17 -11 77 -17 132 -15 125 -29
162 -67 170 -15 3 -45 10 -66 16 -37 10 -38 11 -31 47 4 20 10 42 14 47 10 15
5 97 -8 121 -13 25 -58 37 -75 19z"/>
<path d="M1100 335 l-5 -60 -260 -5 -260 -6 256 -2 c211 -2 259 1 268 12 7 8
11 36 9 68 l-4 53 -4 -60z"/>
<path d="M761 314 c0 -11 3 -14 6 -6 3 7 2 16 -1 19 -3 4 -6 -2 -5 -13z"/>
<path d="M1140 260 c0 -5 5 -10 11 -10 5 0 7 5 4 10 -3 6 -8 10 -11 10 -2 0
-4 -4 -4 -10z"/>
<path d="M231 84 c0 -11 3 -14 6 -6 3 7 2 16 -1 19 -3 4 -6 -2 -5 -13z"/>
</g>
</svg>
